<?xml version="1.0" encoding="UTF-8" standalone="no"?>
<!DOCTYPE svg PUBLIC "-//W3C//DTD SVG 1.1//EN"
 "http://www.w3.org/Graphics/SVG/1.1/DTD/svg11.dtd">
<!-- Generated by graphviz version 11.0.0 (20240428.1522)
 -->
<!-- Pages: 1 -->
<svg width="328pt" height="229pt"
 viewBox="0.00 0.00 328.33 228.50" xmlns="http://www.w3.org/2000/svg" xmlns:xlink="http://www.w3.org/1999/xlink">
<g id="graph0" class="graph" transform="scale(1 1) rotate(0) translate(4 224.5)">
<polygon fill="white" stroke="none" points="-4,4 -4,-224.5 324.33,-224.5 324.33,4 -4,4"/>
<g id="clust1" class="cluster">
<title>cluster_data</title>
<polygon fill="none" stroke="black" points="8,-8 8,-156.5 222,-156.5 222,-8 8,-8"/>
<text text-anchor="middle" x="202.75" y="-15.2" font-family="Times,serif" font-size="14.00">data</text>
</g>
<!-- b_var -->
<g id="node1" class="node">
<title>b_var</title>
<ellipse fill="white" stroke="black" cx="40" cy="-202.5" rx="31.9" ry="18"/>
<text text-anchor="middle" x="40" y="-197.45" font-family="Times,serif" font-size="14.00">b_var</text>
</g>
<!-- log_var -->
<g id="node3" class="node">
<title>log_var</title>
<ellipse fill="grey" stroke="black" cx="122" cy="-130.5" rx="39.07" ry="18"/>
<text text-anchor="middle" x="122" y="-125.45" font-family="Times,serif" font-size="14.00">log_var</text>
</g>
<!-- b_var&#45;&gt;log_var -->
<g id="edge1" class="edge">
<title>b_var&#45;&gt;log_var</title>
<path fill="none" stroke="black" d="M56.99,-187C68.09,-177.52 82.81,-164.95 95.44,-154.18"/>
<polygon fill="black" stroke="black" points="97.7,-156.85 103.03,-147.69 93.15,-151.53 97.7,-156.85"/>
</g>
<!-- param_prev_var_quantile_1 -->
<g id="node2" class="node">
<title>param_prev_var_quantile_1</title>
<ellipse fill="white" stroke="black" cx="205" cy="-202.5" rx="115.33" ry="18"/>
<text text-anchor="middle" x="205" y="-197.45" font-family="Times,serif" font-size="14.00">param_prev_var_quantile_1</text>
</g>
<!-- param_prev_var_quantile_1&#45;&gt;log_var -->
<g id="edge2" class="edge">
<title>param_prev_var_quantile_1&#45;&gt;log_var</title>
<path fill="none" stroke="black" d="M184.91,-184.55C174.05,-175.4 160.5,-163.97 148.76,-154.07"/>
<polygon fill="black" stroke="black" points="151.27,-151.6 141.37,-147.83 146.75,-156.95 151.27,-151.6"/>
</g>
<!-- log_ret_var -->
<g id="node4" class="node">
<title>log_ret_var</title>
<ellipse fill="white" stroke="black" stroke-dasharray="5,2" cx="69" cy="-58.5" rx="53.4" ry="18"/>
<text text-anchor="middle" x="69" y="-53.45" font-family="Times,serif" font-size="14.00">log_ret_var</text>
</g>
<!-- log_var&#45;&gt;log_ret_var -->
<g id="edge3" class="edge">
<title>log_var&#45;&gt;log_ret_var</title>
<path fill="none" stroke="black" d="M109.71,-113.26C103.38,-104.9 95.51,-94.52 88.39,-85.11"/>
<polygon fill="black" stroke="black" points="91.33,-83.2 82.51,-77.34 85.75,-87.43 91.33,-83.2"/>
</g>
<!-- log_ret -->
<g id="node5" class="node">
<title>log_ret</title>
<ellipse fill="grey" stroke="black" cx="177" cy="-58.5" rx="37.02" ry="18"/>
<text text-anchor="middle" x="177" y="-53.45" font-family="Times,serif" font-size="14.00">log_ret</text>
</g>
<!-- log_var&#45;&gt;log_ret -->
<g id="edge4" class="edge">
<title>log_var&#45;&gt;log_ret</title>
<path fill="none" stroke="black" d="M134.76,-113.26C141.42,-104.78 149.72,-94.21 157.2,-84.7"/>
<polygon fill="black" stroke="black" points="159.95,-86.86 163.38,-76.84 154.45,-82.54 159.95,-86.86"/>
</g>
</g>
</svg>
