<?xml version="1.0" encoding="UTF-8" standalone="no"?>
<!DOCTYPE svg PUBLIC "-//W3C//DTD SVG 1.1//EN"
 "http://www.w3.org/Graphics/SVG/1.1/DTD/svg11.dtd">
<!-- Generated by graphviz version 11.0.0 (20240428.1522)
 -->
<!-- Pages: 1 -->
<svg width="960pt" height="229pt"
 viewBox="0.00 0.00 959.53 228.50" xmlns="http://www.w3.org/2000/svg" xmlns:xlink="http://www.w3.org/1999/xlink">
<g id="graph0" class="graph" transform="scale(1 1) rotate(0) translate(4 224.5)">
<polygon fill="white" stroke="none" points="-4,4 -4,-224.5 955.53,-224.5 955.53,4 -4,4"/>
<g id="clust1" class="cluster">
<title>cluster_data</title>
<polygon fill="none" stroke="black" points="280.9,-8 280.9,-156.5 374.9,-156.5 374.9,-8 280.9,-8"/>
<text text-anchor="middle" x="355.65" y="-15.2" font-family="Times,serif" font-size="14.00">data</text>
</g>
<!-- b_var -->
<g id="node1" class="node">
<title>b_var</title>
<ellipse fill="white" stroke="black" cx="31.9" cy="-202.5" rx="31.9" ry="18"/>
<text text-anchor="middle" x="31.9" y="-197.45" font-family="Times,serif" font-size="14.00">b_var</text>
</g>
<!-- log_var -->
<g id="node5" class="node">
<title>log_var</title>
<ellipse fill="grey" stroke="black" cx="327.9" cy="-130.5" rx="39.07" ry="18"/>
<text text-anchor="middle" x="327.9" y="-125.45" font-family="Times,serif" font-size="14.00">log_var</text>
</g>
<!-- b_var&#45;&gt;log_var -->
<g id="edge1" class="edge">
<title>b_var&#45;&gt;log_var</title>
<path fill="none" stroke="black" d="M56.34,-190.49C61.73,-188.31 67.45,-186.18 72.9,-184.5 143.61,-162.71 228.1,-147.12 279.88,-138.71"/>
<polygon fill="black" stroke="black" points="280.22,-142.2 289.55,-137.16 279.12,-135.29 280.22,-142.2"/>
</g>
<!-- param_prev_var_quantile_1 -->
<g id="node2" class="node">
<title>param_prev_var_quantile_1</title>
<ellipse fill="white" stroke="black" cx="196.9" cy="-202.5" rx="115.33" ry="18"/>
<text text-anchor="middle" x="196.9" y="-197.45" font-family="Times,serif" font-size="14.00">param_prev_var_quantile_1</text>
</g>
<!-- param_prev_var_quantile_1&#45;&gt;log_var -->
<g id="edge2" class="edge">
<title>param_prev_var_quantile_1&#45;&gt;log_var</title>
<path fill="none" stroke="black" d="M228.28,-184.73C247.88,-174.26 273.12,-160.77 293.3,-149.99"/>
<polygon fill="black" stroke="black" points="294.82,-153.14 301.99,-145.34 291.53,-146.97 294.82,-153.14"/>
</g>
<!-- param_prev_storage_quantile_1 -->
<g id="node3" class="node">
<title>param_prev_storage_quantile_1</title>
<ellipse fill="white" stroke="black" cx="459.9" cy="-202.5" rx="130.17" ry="18"/>
<text text-anchor="middle" x="459.9" y="-197.45" font-family="Times,serif" font-size="14.00">param_prev_storage_quantile_1</text>
</g>
<!-- param_prev_storage_quantile_1&#45;&gt;log_var -->
<g id="edge3" class="edge">
<title>param_prev_storage_quantile_1&#45;&gt;log_var</title>
<path fill="none" stroke="black" d="M428.29,-184.73C408.54,-174.26 383.1,-160.77 362.77,-149.99"/>
<polygon fill="black" stroke="black" points="364.47,-146.93 354,-145.34 361.2,-153.12 364.47,-146.93"/>
</g>
<!-- param_prev_storage_quantile_derivative_1 -->
<g id="node4" class="node">
<title>param_prev_storage_quantile_derivative_1</title>
<ellipse fill="white" stroke="black" cx="779.9" cy="-202.5" rx="171.63" ry="18"/>
<text text-anchor="middle" x="779.9" y="-197.45" font-family="Times,serif" font-size="14.00">param_prev_storage_quantile_derivative_1</text>
</g>
<!-- param_prev_storage_quantile_derivative_1&#45;&gt;log_var -->
<g id="edge4" class="edge">
<title>param_prev_storage_quantile_derivative_1&#45;&gt;log_var</title>
<path fill="none" stroke="black" d="M686.25,-187C591.75,-172.36 449.59,-150.34 375.95,-138.94"/>
<polygon fill="black" stroke="black" points="376.65,-135.51 366.23,-137.44 375.58,-142.42 376.65,-135.51"/>
</g>
<!-- log_ret -->
<g id="node6" class="node">
<title>log_ret</title>
<ellipse fill="grey" stroke="black" cx="327.9" cy="-58.5" rx="37.02" ry="18"/>
<text text-anchor="middle" x="327.9" y="-53.45" font-family="Times,serif" font-size="14.00">log_ret</text>
</g>
<!-- log_var&#45;&gt;log_ret -->
<g id="edge5" class="edge">
<title>log_var&#45;&gt;log_ret</title>
<path fill="none" stroke="black" d="M327.9,-112.2C327.9,-104.91 327.9,-96.23 327.9,-88.04"/>
<polygon fill="black" stroke="black" points="331.4,-88.12 327.9,-78.12 324.4,-88.12 331.4,-88.12"/>
</g>
</g>
</svg>
