<?xml version="1.0" encoding="UTF-8" standalone="no"?>
<!DOCTYPE svg PUBLIC "-//W3C//DTD SVG 1.1//EN"
 "http://www.w3.org/Graphics/SVG/1.1/DTD/svg11.dtd">
<!-- Generated by graphviz version 11.0.0 (20240428.1522)
 -->
<!-- Pages: 1 -->
<svg width="818pt" height="229pt"
 viewBox="0.00 0.00 818.23 228.50" xmlns="http://www.w3.org/2000/svg" xmlns:xlink="http://www.w3.org/1999/xlink">
<g id="graph0" class="graph" transform="scale(1 1) rotate(0) translate(4 224.5)">
<polygon fill="white" stroke="none" points="-4,4 -4,-224.5 814.23,-224.5 814.23,4 -4,4"/>
<g id="clust1" class="cluster">
<title>cluster_data</title>
<polygon fill="none" stroke="black" points="206.9,-8 206.9,-156.5 420.9,-156.5 420.9,-8 206.9,-8"/>
<text text-anchor="middle" x="401.65" y="-15.2" font-family="Times,serif" font-size="14.00">data</text>
</g>
<!-- b_var -->
<g id="node1" class="node">
<title>b_var</title>
<ellipse fill="white" stroke="black" cx="31.9" cy="-202.5" rx="31.9" ry="18"/>
<text text-anchor="middle" x="31.9" y="-197.45" font-family="Times,serif" font-size="14.00">b_var</text>
</g>
<!-- log_var -->
<g id="node5" class="node">
<title>log_var</title>
<ellipse fill="grey" stroke="black" cx="320.9" cy="-130.5" rx="39.07" ry="18"/>
<text text-anchor="middle" x="320.9" y="-125.45" font-family="Times,serif" font-size="14.00">log_var</text>
</g>
<!-- b_var&#45;&gt;log_var -->
<g id="edge1" class="edge">
<title>b_var&#45;&gt;log_var</title>
<path fill="none" stroke="black" d="M56.35,-190.51C61.74,-188.33 67.46,-186.19 72.9,-184.5 141.15,-163.25 222.58,-147.64 273.02,-139.06"/>
<polygon fill="black" stroke="black" points="273.45,-142.54 282.73,-137.43 272.29,-135.63 273.45,-142.54"/>
</g>
<!-- param_prev_var_quantile_1 -->
<g id="node2" class="node">
<title>param_prev_var_quantile_1</title>
<ellipse fill="white" stroke="black" cx="196.9" cy="-202.5" rx="115.33" ry="18"/>
<text text-anchor="middle" x="196.9" y="-197.45" font-family="Times,serif" font-size="14.00">param_prev_var_quantile_1</text>
</g>
<!-- param_prev_var_quantile_1&#45;&gt;log_var -->
<g id="edge2" class="edge">
<title>param_prev_var_quantile_1&#45;&gt;log_var</title>
<path fill="none" stroke="black" d="M226.6,-184.73C244.74,-174.5 267.99,-161.37 286.87,-150.71"/>
<polygon fill="black" stroke="black" points="288.54,-153.79 295.53,-145.83 285.1,-147.69 288.54,-153.79"/>
</g>
<!-- param_prev_var_quantile_2 -->
<g id="node3" class="node">
<title>param_prev_var_quantile_2</title>
<ellipse fill="white" stroke="black" cx="445.9" cy="-202.5" rx="115.33" ry="18"/>
<text text-anchor="middle" x="445.9" y="-197.45" font-family="Times,serif" font-size="14.00">param_prev_var_quantile_2</text>
</g>
<!-- param_prev_var_quantile_2&#45;&gt;log_var -->
<g id="edge3" class="edge">
<title>param_prev_var_quantile_2&#45;&gt;log_var</title>
<path fill="none" stroke="black" d="M415.96,-184.73C397.6,-174.45 374.02,-161.25 354.95,-150.57"/>
<polygon fill="black" stroke="black" points="356.91,-147.65 346.48,-145.82 353.49,-153.76 356.91,-147.65"/>
</g>
<!-- param_prev_var_quantile_3 -->
<g id="node4" class="node">
<title>param_prev_var_quantile_3</title>
<ellipse fill="white" stroke="black" cx="694.9" cy="-202.5" rx="115.33" ry="18"/>
<text text-anchor="middle" x="694.9" y="-197.45" font-family="Times,serif" font-size="14.00">param_prev_var_quantile_3</text>
</g>
<!-- param_prev_var_quantile_3&#45;&gt;log_var -->
<g id="edge4" class="edge">
<title>param_prev_var_quantile_3&#45;&gt;log_var</title>
<path fill="none" stroke="black" d="M623.23,-188.09C548,-174 431.91,-152.28 367.67,-140.25"/>
<polygon fill="black" stroke="black" points="368.64,-136.88 358.17,-138.48 367.36,-143.76 368.64,-136.88"/>
</g>
<!-- log_ret_var -->
<g id="node6" class="node">
<title>log_ret_var</title>
<ellipse fill="white" stroke="black" stroke-dasharray="5,2" cx="267.9" cy="-58.5" rx="53.4" ry="18"/>
<text text-anchor="middle" x="267.9" y="-53.45" font-family="Times,serif" font-size="14.00">log_ret_var</text>
</g>
<!-- log_var&#45;&gt;log_ret_var -->
<g id="edge5" class="edge">
<title>log_var&#45;&gt;log_ret_var</title>
<path fill="none" stroke="black" d="M308.61,-113.26C302.28,-104.9 294.41,-94.52 287.29,-85.11"/>
<polygon fill="black" stroke="black" points="290.24,-83.2 281.41,-77.34 284.66,-87.43 290.24,-83.2"/>
</g>
<!-- log_ret -->
<g id="node7" class="node">
<title>log_ret</title>
<ellipse fill="grey" stroke="black" cx="375.9" cy="-58.5" rx="37.02" ry="18"/>
<text text-anchor="middle" x="375.9" y="-53.45" font-family="Times,serif" font-size="14.00">log_ret</text>
</g>
<!-- log_var&#45;&gt;log_ret -->
<g id="edge6" class="edge">
<title>log_var&#45;&gt;log_ret</title>
<path fill="none" stroke="black" d="M333.66,-113.26C340.32,-104.78 348.63,-94.21 356.1,-84.7"/>
<polygon fill="black" stroke="black" points="358.85,-86.86 362.28,-76.84 353.35,-82.54 358.85,-86.86"/>
</g>
</g>
</svg>
