<?xml version="1.0" encoding="UTF-8" standalone="no"?>
<!DOCTYPE svg PUBLIC "-//W3C//DTD SVG 1.1//EN"
 "http://www.w3.org/Graphics/SVG/1.1/DTD/svg11.dtd">
<!-- Generated by graphviz version 11.0.0 (20240428.1522)
 -->
<!-- Pages: 1 -->
<svg width="432pt" height="157pt"
 viewBox="0.00 0.00 431.94 156.50" xmlns="http://www.w3.org/2000/svg" xmlns:xlink="http://www.w3.org/1999/xlink">
<g id="graph0" class="graph" transform="scale(1 1) rotate(0) translate(4 152.5)">
<polygon fill="white" stroke="none" points="-4,4 -4,-152.5 427.94,-152.5 427.94,4 -4,4"/>
<g id="clust1" class="cluster">
<title>cluster_data</title>
<polygon fill="none" stroke="black" points="117.9,-8 117.9,-84.5 207.9,-84.5 207.9,-8 117.9,-8"/>
<text text-anchor="middle" x="188.65" y="-15.2" font-family="Times,serif" font-size="14.00">data</text>
</g>
<!-- b_var -->
<g id="node1" class="node">
<title>b_var</title>
<ellipse fill="white" stroke="black" cx="31.9" cy="-130.5" rx="31.9" ry="18"/>
<text text-anchor="middle" x="31.9" y="-125.45" font-family="Times,serif" font-size="14.00">b_var</text>
</g>
<!-- log_ret -->
<g id="node4" class="node">
<title>log_ret</title>
<ellipse fill="grey" stroke="black" cx="162.9" cy="-58.5" rx="37.02" ry="18"/>
<text text-anchor="middle" x="162.9" y="-53.45" font-family="Times,serif" font-size="14.00">log_ret</text>
</g>
<!-- b_var&#45;&gt;log_ret -->
<g id="edge1" class="edge">
<title>b_var&#45;&gt;log_ret</title>
<path fill="none" stroke="black" d="M54.42,-117.47C74.94,-106.5 105.54,-90.15 129.01,-77.61"/>
<polygon fill="black" stroke="black" points="130.4,-80.84 137.57,-73.04 127.1,-74.66 130.4,-80.84"/>
</g>
<!-- param_prev_var_1 -->
<g id="node2" class="node">
<title>param_prev_var_1</title>
<ellipse fill="white" stroke="black" cx="162.9" cy="-130.5" rx="81.04" ry="18"/>
<text text-anchor="middle" x="162.9" y="-125.45" font-family="Times,serif" font-size="14.00">param_prev_var_1</text>
</g>
<!-- param_prev_var_1&#45;&gt;log_ret -->
<g id="edge2" class="edge">
<title>param_prev_var_1&#45;&gt;log_ret</title>
<path fill="none" stroke="black" d="M162.9,-112.2C162.9,-104.91 162.9,-96.23 162.9,-88.04"/>
<polygon fill="black" stroke="black" points="166.4,-88.12 162.9,-78.12 159.4,-88.12 166.4,-88.12"/>
</g>
<!-- param_prev_var_2 -->
<g id="node3" class="node">
<title>param_prev_var_2</title>
<ellipse fill="white" stroke="black" cx="342.9" cy="-130.5" rx="81.04" ry="18"/>
<text text-anchor="middle" x="342.9" y="-125.45" font-family="Times,serif" font-size="14.00">param_prev_var_2</text>
</g>
<!-- param_prev_var_2&#45;&gt;log_ret -->
<g id="edge3" class="edge">
<title>param_prev_var_2&#45;&gt;log_ret</title>
<path fill="none" stroke="black" d="M303.85,-114.31C273.64,-102.56 232.02,-86.38 201.85,-74.64"/>
<polygon fill="black" stroke="black" points="203.29,-71.45 192.7,-71.09 200.75,-77.97 203.29,-71.45"/>
</g>
</g>
</svg>
