<?xml version="1.0" encoding="UTF-8" standalone="no"?>
<!DOCTYPE svg PUBLIC "-//W3C//DTD SVG 1.1//EN"
 "http://www.w3.org/Graphics/SVG/1.1/DTD/svg11.dtd">
<!-- Generated by graphviz version 11.0.0 (20240428.1522)
 -->
<!-- Pages: 1 -->
<svg width="818pt" height="116pt"
 viewBox="0.00 0.00 818.23 116.00" xmlns="http://www.w3.org/2000/svg" xmlns:xlink="http://www.w3.org/1999/xlink">
<g id="graph0" class="graph" transform="scale(1 1) rotate(0) translate(4 112)">
<polygon fill="white" stroke="none" points="-4,4 -4,-112 814.23,-112 814.23,4 -4,4"/>
<!-- b_var -->
<g id="node1" class="node">
<title>b_var</title>
<ellipse fill="white" stroke="black" cx="31.9" cy="-90" rx="31.9" ry="18"/>
<text text-anchor="middle" x="31.9" y="-84.95" font-family="Times,serif" font-size="14.00">b_var</text>
</g>
<!-- log_ret -->
<g id="node5" class="node">
<title>log_ret</title>
<ellipse fill="grey" stroke="black" cx="320.9" cy="-18" rx="37.02" ry="18"/>
<text text-anchor="middle" x="320.9" y="-12.95" font-family="Times,serif" font-size="14.00">log_ret</text>
</g>
<!-- b_var&#45;&gt;log_ret -->
<g id="edge1" class="edge">
<title>b_var&#45;&gt;log_ret</title>
<path fill="none" stroke="black" d="M56.35,-78.01C61.74,-75.83 67.46,-73.69 72.9,-72 141.93,-50.51 224.44,-34.78 274.74,-26.27"/>
<polygon fill="black" stroke="black" points="275.1,-29.75 284.39,-24.66 273.95,-22.85 275.1,-29.75"/>
</g>
<!-- param_prev_var_quantile_1 -->
<g id="node2" class="node">
<title>param_prev_var_quantile_1</title>
<ellipse fill="white" stroke="black" cx="196.9" cy="-90" rx="115.33" ry="18"/>
<text text-anchor="middle" x="196.9" y="-84.95" font-family="Times,serif" font-size="14.00">param_prev_var_quantile_1</text>
</g>
<!-- param_prev_var_quantile_1&#45;&gt;log_ret -->
<g id="edge2" class="edge">
<title>param_prev_var_quantile_1&#45;&gt;log_ret</title>
<path fill="none" stroke="black" d="M226.6,-72.23C244.86,-61.93 268.3,-48.69 287.25,-38"/>
<polygon fill="black" stroke="black" points="288.94,-41.06 295.93,-33.1 285.5,-34.97 288.94,-41.06"/>
</g>
<!-- param_prev_var_quantile_2 -->
<g id="node3" class="node">
<title>param_prev_var_quantile_2</title>
<ellipse fill="white" stroke="black" cx="445.9" cy="-90" rx="115.33" ry="18"/>
<text text-anchor="middle" x="445.9" y="-84.95" font-family="Times,serif" font-size="14.00">param_prev_var_quantile_2</text>
</g>
<!-- param_prev_var_quantile_2&#45;&gt;log_ret -->
<g id="edge3" class="edge">
<title>param_prev_var_quantile_2&#45;&gt;log_ret</title>
<path fill="none" stroke="black" d="M415.96,-72.23C397.35,-61.81 373.39,-48.39 354.19,-37.64"/>
<polygon fill="black" stroke="black" points="356.11,-34.7 345.67,-32.87 352.69,-40.81 356.11,-34.7"/>
</g>
<!-- param_prev_var_quantile_3 -->
<g id="node4" class="node">
<title>param_prev_var_quantile_3</title>
<ellipse fill="white" stroke="black" cx="694.9" cy="-90" rx="115.33" ry="18"/>
<text text-anchor="middle" x="694.9" y="-84.95" font-family="Times,serif" font-size="14.00">param_prev_var_quantile_3</text>
</g>
<!-- param_prev_var_quantile_3&#45;&gt;log_ret -->
<g id="edge4" class="edge">
<title>param_prev_var_quantile_3&#45;&gt;log_ret</title>
<path fill="none" stroke="black" d="M623.23,-75.59C547.56,-61.42 430.54,-39.52 366.54,-27.54"/>
<polygon fill="black" stroke="black" points="367.19,-24.1 356.72,-25.7 365.91,-30.98 367.19,-24.1"/>
</g>
</g>
</svg>
