<?xml version="1.0" encoding="UTF-8" standalone="no"?>
<!DOCTYPE svg PUBLIC "-//W3C//DTD SVG 1.1//EN"
 "http://www.w3.org/Graphics/SVG/1.1/DTD/svg11.dtd">
<!-- Generated by graphviz version 11.0.0 (20240428.1522)
 -->
<!-- Pages: 1 -->
<svg width="1310pt" height="157pt"
 viewBox="0.00 0.00 1310.04 156.50" xmlns="http://www.w3.org/2000/svg" xmlns:xlink="http://www.w3.org/1999/xlink">
<g id="graph0" class="graph" transform="scale(1 1) rotate(0) translate(4 152.5)">
<polygon fill="white" stroke="none" points="-4,4 -4,-152.5 1306.04,-152.5 1306.04,4 -4,4"/>
<g id="clust1" class="cluster">
<title>cluster_data</title>
<polygon fill="none" stroke="black" points="517,-8 517,-84.5 607,-84.5 607,-8 517,-8"/>
<text text-anchor="middle" x="587.75" y="-15.2" font-family="Times,serif" font-size="14.00">data</text>
</g>
<!-- b -->
<g id="node1" class="node">
<title>b</title>
<ellipse fill="white" stroke="black" cx="27" cy="-130.5" rx="27" ry="18"/>
<text text-anchor="middle" x="27" y="-125.45" font-family="Times,serif" font-size="14.00">b</text>
</g>
<!-- log_ret -->
<g id="node9" class="node">
<title>log_ret</title>
<ellipse fill="grey" stroke="black" cx="562" cy="-58.5" rx="37.02" ry="18"/>
<text text-anchor="middle" x="562" y="-53.45" font-family="Times,serif" font-size="14.00">log_ret</text>
</g>
<!-- b&#45;&gt;log_ret -->
<g id="edge1" class="edge">
<title>b&#45;&gt;log_ret</title>
<path fill="none" stroke="black" d="M47.48,-118.38C52.44,-116.1 57.81,-113.96 63,-112.5 223.52,-67.47 422.88,-60.15 513.33,-59.32"/>
<polygon fill="black" stroke="black" points="513.09,-62.82 523.07,-59.25 513.04,-55.82 513.09,-62.82"/>
</g>
<!-- b_var -->
<g id="node2" class="node">
<title>b_var</title>
<ellipse fill="white" stroke="black" cx="104" cy="-130.5" rx="31.9" ry="18"/>
<text text-anchor="middle" x="104" y="-125.45" font-family="Times,serif" font-size="14.00">b_var</text>
</g>
<!-- b_var&#45;&gt;log_ret -->
<g id="edge2" class="edge">
<title>b_var&#45;&gt;log_ret</title>
<path fill="none" stroke="black" d="M127.91,-118.34C133.43,-116.11 139.34,-114 145,-112.5 275.32,-77.87 434.74,-65.62 513.38,-61.48"/>
<polygon fill="black" stroke="black" points="513.51,-64.98 523.32,-60.98 513.16,-57.99 513.51,-64.98"/>
</g>
<!-- param_prev_log_ret_1 -->
<g id="node3" class="node">
<title>param_prev_log_ret_1</title>
<ellipse fill="white" stroke="black" cx="249" cy="-130.5" rx="95.37" ry="18"/>
<text text-anchor="middle" x="249" y="-125.45" font-family="Times,serif" font-size="14.00">param_prev_log_ret_1</text>
</g>
<!-- param_prev_log_ret_1&#45;&gt;log_ret -->
<g id="edge3" class="edge">
<title>param_prev_log_ret_1&#45;&gt;log_ret</title>
<path fill="none" stroke="black" d="M308.98,-116.09C369.96,-102.45 463.03,-81.63 517.67,-69.41"/>
<polygon fill="black" stroke="black" points="518.24,-72.87 527.24,-67.27 516.72,-66.04 518.24,-72.87"/>
</g>
<!-- param_prev_log_ret_2 -->
<g id="node4" class="node">
<title>param_prev_log_ret_2</title>
<ellipse fill="white" stroke="black" cx="458" cy="-130.5" rx="95.37" ry="18"/>
<text text-anchor="middle" x="458" y="-125.45" font-family="Times,serif" font-size="14.00">param_prev_log_ret_2</text>
</g>
<!-- param_prev_log_ret_2&#45;&gt;log_ret -->
<g id="edge4" class="edge">
<title>param_prev_log_ret_2&#45;&gt;log_ret</title>
<path fill="none" stroke="black" d="M482.91,-112.73C497.64,-102.82 516.39,-90.2 531.94,-79.73"/>
<polygon fill="black" stroke="black" points="533.55,-82.87 539.89,-74.38 529.64,-77.06 533.55,-82.87"/>
</g>
<!-- param_prev_log_ret_3 -->
<g id="node5" class="node">
<title>param_prev_log_ret_3</title>
<ellipse fill="white" stroke="black" cx="667" cy="-130.5" rx="95.37" ry="18"/>
<text text-anchor="middle" x="667" y="-125.45" font-family="Times,serif" font-size="14.00">param_prev_log_ret_3</text>
</g>
<!-- param_prev_log_ret_3&#45;&gt;log_ret -->
<g id="edge5" class="edge">
<title>param_prev_log_ret_3&#45;&gt;log_ret</title>
<path fill="none" stroke="black" d="M641.85,-112.73C626.98,-102.82 608.04,-90.2 592.35,-79.73"/>
<polygon fill="black" stroke="black" points="594.58,-77.01 584.31,-74.38 590.69,-82.84 594.58,-77.01"/>
</g>
<!-- param_prev_var_1 -->
<g id="node6" class="node">
<title>param_prev_var_1</title>
<ellipse fill="white" stroke="black" cx="861" cy="-130.5" rx="81.04" ry="18"/>
<text text-anchor="middle" x="861" y="-125.45" font-family="Times,serif" font-size="14.00">param_prev_var_1</text>
</g>
<!-- param_prev_var_1&#45;&gt;log_ret -->
<g id="edge6" class="edge">
<title>param_prev_var_1&#45;&gt;log_ret</title>
<path fill="none" stroke="black" d="M806.51,-116.74C748.91,-103.26 659.2,-82.26 605.95,-69.79"/>
<polygon fill="black" stroke="black" points="606.86,-66.41 596.32,-67.54 605.26,-73.22 606.86,-66.41"/>
</g>
<!-- param_prev_var_2 -->
<g id="node7" class="node">
<title>param_prev_var_2</title>
<ellipse fill="white" stroke="black" cx="1041" cy="-130.5" rx="81.04" ry="18"/>
<text text-anchor="middle" x="1041" y="-125.45" font-family="Times,serif" font-size="14.00">param_prev_var_2</text>
</g>
<!-- param_prev_var_2&#45;&gt;log_ret -->
<g id="edge7" class="edge">
<title>param_prev_var_2&#45;&gt;log_ret</title>
<path fill="none" stroke="black" d="M982.01,-117.91C971.69,-116.01 961.05,-114.13 951,-112.5 827.91,-92.5 682.07,-74.02 608.87,-65.1"/>
<polygon fill="black" stroke="black" points="609.61,-61.66 599.26,-63.93 608.76,-68.61 609.61,-61.66"/>
</g>
<!-- param_prev_var_3 -->
<g id="node8" class="node">
<title>param_prev_var_3</title>
<ellipse fill="white" stroke="black" cx="1221" cy="-130.5" rx="81.04" ry="18"/>
<text text-anchor="middle" x="1221" y="-125.45" font-family="Times,serif" font-size="14.00">param_prev_var_3</text>
</g>
<!-- param_prev_var_3&#45;&gt;log_ret -->
<g id="edge8" class="edge">
<title>param_prev_var_3&#45;&gt;log_ret</title>
<path fill="none" stroke="black" d="M1162.55,-117.64C1152.07,-115.74 1141.24,-113.94 1131,-112.5 938.88,-85.47 708.26,-68.81 610.06,-62.45"/>
<polygon fill="black" stroke="black" points="610.46,-58.97 600.26,-61.82 610.02,-65.95 610.46,-58.97"/>
</g>
</g>
</svg>
