<?xml version="1.0" encoding="UTF-8" standalone="no"?>
<!DOCTYPE svg PUBLIC "-//W3C//DTD SVG 1.1//EN"
 "http://www.w3.org/Graphics/SVG/1.1/DTD/svg11.dtd">
<!-- Generated by graphviz version 11.0.0 (20240428.1522)
 -->
<!-- Pages: 1 -->
<svg width="890pt" height="116pt"
 viewBox="0.00 0.00 889.90 116.00" xmlns="http://www.w3.org/2000/svg" xmlns:xlink="http://www.w3.org/1999/xlink">
<g id="graph0" class="graph" transform="scale(1 1) rotate(0) translate(4 112)">
<polygon fill="white" stroke="none" points="-4,4 -4,-112 885.9,-112 885.9,4 -4,4"/>
<!-- b_var -->
<g id="node1" class="node">
<title>b_var</title>
<ellipse fill="white" stroke="black" cx="31.9" cy="-90" rx="31.9" ry="18"/>
<text text-anchor="middle" x="31.9" y="-84.95" font-family="Times,serif" font-size="14.00">b_var</text>
</g>
<!-- log_ret -->
<g id="node6" class="node">
<title>log_ret</title>
<ellipse fill="grey" stroke="black" cx="445.9" cy="-18" rx="37.02" ry="18"/>
<text text-anchor="middle" x="445.9" y="-12.95" font-family="Times,serif" font-size="14.00">log_ret</text>
</g>
<!-- b_var&#45;&gt;log_ret -->
<g id="edge1" class="edge">
<title>b_var&#45;&gt;log_ret</title>
<path fill="none" stroke="black" d="M55.83,-77.9C61.35,-75.67 67.25,-73.55 72.9,-72 186.9,-40.81 325.8,-27.24 397.65,-21.96"/>
<polygon fill="black" stroke="black" points="397.78,-25.46 407.5,-21.26 397.28,-18.48 397.78,-25.46"/>
</g>
<!-- param_prev_var_quantile_1 -->
<g id="node2" class="node">
<title>param_prev_var_quantile_1</title>
<ellipse fill="white" stroke="black" cx="196.9" cy="-90" rx="115.33" ry="18"/>
<text text-anchor="middle" x="196.9" y="-84.95" font-family="Times,serif" font-size="14.00">param_prev_var_quantile_1</text>
</g>
<!-- param_prev_var_quantile_1&#45;&gt;log_ret -->
<g id="edge2" class="edge">
<title>param_prev_var_quantile_1&#45;&gt;log_ret</title>
<path fill="none" stroke="black" d="M251.24,-73.72C296.99,-60.86 361.5,-42.73 403.51,-30.92"/>
<polygon fill="black" stroke="black" points="404.32,-34.32 413,-28.25 402.43,-27.59 404.32,-34.32"/>
</g>
<!-- param_prev_var_quantile_2 -->
<g id="node3" class="node">
<title>param_prev_var_quantile_2</title>
<ellipse fill="white" stroke="black" cx="445.9" cy="-90" rx="115.33" ry="18"/>
<text text-anchor="middle" x="445.9" y="-84.95" font-family="Times,serif" font-size="14.00">param_prev_var_quantile_2</text>
</g>
<!-- param_prev_var_quantile_2&#45;&gt;log_ret -->
<g id="edge3" class="edge">
<title>param_prev_var_quantile_2&#45;&gt;log_ret</title>
<path fill="none" stroke="black" d="M445.9,-71.7C445.9,-64.41 445.9,-55.73 445.9,-47.54"/>
<polygon fill="black" stroke="black" points="449.4,-47.62 445.9,-37.62 442.4,-47.62 449.4,-47.62"/>
</g>
<!-- param_prev_var_quantile_3 -->
<g id="node4" class="node">
<title>param_prev_var_quantile_3</title>
<ellipse fill="white" stroke="black" cx="694.9" cy="-90" rx="115.33" ry="18"/>
<text text-anchor="middle" x="694.9" y="-84.95" font-family="Times,serif" font-size="14.00">param_prev_var_quantile_3</text>
</g>
<!-- param_prev_var_quantile_3&#45;&gt;log_ret -->
<g id="edge4" class="edge">
<title>param_prev_var_quantile_3&#45;&gt;log_ret</title>
<path fill="none" stroke="black" d="M640.57,-73.72C594.82,-60.86 530.31,-42.73 488.3,-30.92"/>
<polygon fill="black" stroke="black" points="489.38,-27.59 478.8,-28.25 487.48,-34.32 489.38,-27.59"/>
</g>
<!-- df -->
<g id="node5" class="node">
<title>df</title>
<ellipse fill="white" stroke="black" cx="854.9" cy="-90" rx="27" ry="18"/>
<text text-anchor="middle" x="854.9" y="-84.95" font-family="Times,serif" font-size="14.00">df</text>
</g>
<!-- df&#45;&gt;log_ret -->
<g id="edge5" class="edge">
<title>df&#45;&gt;log_ret</title>
<path fill="none" stroke="black" d="M834.38,-78.02C829.43,-75.73 824.07,-73.55 818.9,-72 705.69,-38.07 566.47,-25.64 494.36,-21.25"/>
<polygon fill="black" stroke="black" points="494.65,-17.76 484.46,-20.68 494.25,-24.75 494.65,-17.76"/>
</g>
</g>
</svg>
